<?xml version="1.0" encoding="utf-8"?>
<!-- Generator: Adobe Illustrator 15.1.0, SVG Export Plug-In . SVG Version: 6.00 Build 0)  -->
<!DOCTYPE svg PUBLIC "-//W3C//DTD SVG 1.1//EN" "http://www.w3.org/Graphics/SVG/1.1/DTD/svg11.dtd">
<svg version="1.1" id="Warstwa_1" xmlns="http://www.w3.org/2000/svg" xmlns:xlink="http://www.w3.org/1999/xlink" x="0px" y="0px"
	 width="148px" height="210px" viewBox="0 0 595 842" enable-background="new 0 0 595 842" xml:space="preserve">
<path fill-rule="evenodd" clip-rule="evenodd" fill="rgb(218,219,222)" d="M331.818,575.6c0,0,43.418-34.525,63.669-50.625
	c-1.84,15.273-34.08,39.424-38.267,42.8c-6.442,5.227-26.618,21.943-56.589,27.538c-17.073,1.814-26.698,1.716-32.108,1.099
	C311.548,593.929,331.818,575.6,331.818,575.6L331.818,575.6z M321.701,216.317h-4.599c-3.097,0-4.753,1.686-4.753,3.753
	c0,2.057,1.91,3.739,4.753,3.739h4.599c2.83,0,4.871-1.682,4.871-3.739C326.572,218.002,324.363,216.317,321.701,216.317
	L321.701,216.317z M287.753,216.317h-4.596c-2.666,0-4.862,1.686-4.862,3.753c0.001,2.057,2.028,3.739,4.862,3.739h4.596
	c2.83,0,4.753-1.682,4.753-3.739C292.506,218.002,290.849,216.317,287.753,216.317L287.753,216.317z M267.508,231.166l-7.764-42.332
	c0,0,17.813,17.609,26.188,25.188l16.488-25.188l16.513,25.188l26.166-25.188l-7.754,42.332H267.508L267.508,231.166z
	 M264.004,239.346v-1.175c0-2.758,3.004-3.361,18.755-3.474c3.961-0.033,11.268-0.038,18.588-0.038
	c7.323,0,14.634,0.007,18.588,0.007c0.154-0.001,0.299,0,0.454,0c16.619-0.001,19.948,0.478,19.948,3.505v1.175
	c0,3.999-3.477,4.699-19.804,4.699c-0.099,0-0.194,0-0.3,0c-8.066,0-29.579,0-37.639,0
	C267.294,244.045,264.004,243.211,264.004,239.346L264.004,239.346z M336.482,251.649c0.647,0.01,0.479,0.983,0,1.201
	l-29.452,14.031l-10.038-13.665c-0.24-0.366-0.986-1.566,0.542-1.566L336.482,251.649L336.482,251.649z M481.246,279.303
	c-14.949,0-25.842,6.86-32.916,17.199l0.022,0.029c6.502-0.459,14.499,0.466,25.247,3.056c28.791,6.92,46.407,32.678,58.069,58.068
	c10.939,23.834,7.026,61.674-0.352,78.786c0.075,0.285,0.16,0.572,0.239,0.862c2.676-3.37,4.871-6.528,6.541-9.185
	c8.39-13.243,25.839-52.425,7.018-99.792C535.81,309.417,518.901,279.303,481.246,279.303L481.246,279.303z M415.082,324.022
	c6.209-11.065,15.028-18.461,25.763-21.735l0,0c-1.466,3.12-2.813,6.615-4.029,10.529c-10.808,32.802,4.151,57.547,6.098,61.187
	c3.287-1.091,1.524-0.432,2.38-2.495c-11.913-32.679-8.02-46.895-3.768-60.624c1.052-3.418,2.39-6.689,4.004-9.742l-0.23,0.055
	l0.237-0.064l-0.007,0.01c10.167-1.881,21.813-0.362,34.454,4.882c34.744,16.4,53.792,62.542,53.917,94.37
	c0.049,12.757-1.933,22.996-4.309,30.685c-10.749-28.913-39.599-41.607-62.943-42.499c-23.726-0.891-40.621,8.199-53.865,16.85
	C404.869,383.264,402.486,346.47,415.082,324.022L415.082,324.022z M398.587,428.129c2.683,5.009,5.645,10.479,8.652,15.928
	c3.842-2.987,7.599-5.876,11.165-8.638c-3.148-4.897-6.038-10.327-8.47-16.313C406.735,421.647,402.907,424.7,398.587,428.129
	L398.587,428.129z M429.002,478.531c-3.951-3.96-10.38-14.334-17.023-26.01l8.707-7.195l2.695-2.945
	c8.363,10.654,18.076,18.151,27.19,22.789c20.044,10.206,41.975,6.433,63.489-8.14c1.62-1.106,3.182-2.225,4.684-3.352
	c-6.856,13.759-21.75,28.715-35.885,35.295c-6.11,2.834-12.593,4.169-19.048,4.169C451.039,493.143,438.377,487.896,429.002,478.531
	L429.002,478.531z M521.601,448.314l0.105-0.161c-0.092,0.132-0.142,0.2-0.142,0.2S521.58,448.344,521.601,448.314L521.601,448.314z
	 M522.255,447.361l-0.44,0.638c-10.667,10.202-25.162,19.396-42.43,19.698c-24.412-0.449-40.505-14.562-51.236-30.556l2.95-3.231
	c0,0,17.935-22.341,36.345-22.341c18.424,0,17.051,6.508,26.369,7.066c0,0-24.469-21.806-55.774,1.769
	c-3.921,2.958-8.596,6.521-13.753,10.489c-3.287-5.693-5.962-11.432-8.135-16.72c0.746-0.602,1.4-1.118,1.955-1.549
	c15.637-12.375,28.279-21.979,49.089-21.979c11.98,0,50.11,8.361,60.849,44.975c-2.304,6.102-4.641,10.029-5.775,11.735
	L522.255,447.361L522.255,447.361z M379.56,443.288c-36.976,29.438-85.957,68.482-85.957,68.482s-29.904,27.848-65.812,33.418
	c-18.356,2.863-39.07,4.951-59.133,1.147c9.707,6.63,23.685,12.487,42.858,12.487c53.75,0,82.775-25.721,82.775-25.721l33.59-26.871
	c0,0,30.986-24.469,61.832-48.532C386.024,452.847,382.432,447.62,379.56,443.288L379.56,443.288z M342.725,379.889v50.396
	c0,8.479,12.73,6.547,14.896,8.743c1.838,1.87,0.361,6.348-2.261,6.348h-84.982c0.065,8.802-0.158,11.084-3.238,11.932
	c-0.239,0.065-0.482,0.099-0.704,0.099c-2.165-0.001-4.01-2.735-5.308-5.233l-58.995-113.99c-0.46-0.875-1.2-1.337-1.838-1.337
	c-0.674,0-1.241,0.511-1.241,1.567l0.048,42.524c0,3.063-0.243,8.359-0.256,9.089c17.421,6.133,27.107,17.934,32.924,25.178
	c6.317,7.866,13.141,19.193,14.836,36.5c15.564,5.814,28.206,16.494,26.332,33.015c-2.922,25.879-28.809,33.481-28.809,33.481
	l0.114-0.312c0,0,6.835-3.804,12.171-7.61c22.979-19.064,14.424-46.156-7.386-54.774c-0.716-0.335-1.457-0.657-2.196-0.967
	c0.396,6.331,0.12,13.411-1.084,21.365c-6.706,35.51-33.927,48.037-39.159,50.364c-5.238,2.327-1.744-0.381-0.573-1.11
	c23.874-11.502,34.481-37.896,35.632-49.69c1.003-8.497,0.931-16.061,0.18-22.72c-18.775-5.86-42.708-4.286-55.779-0.47
	c-60.677,19.666-38.997,70.614-34.285,77.426c1.909,2.757,5.966,8.079,12.576,13.424c8.255,2.218,25.367,5.394,53.476-0.418
	c10.191-2.041,24.735-5.656,53.995-29.267c25.836-20.834,91.221-72.887,91.221-72.887s4.165-3.063,10.102-7.377L342.725,379.889
	L342.725,379.889z M180.506,389.174c2.602,0.305,5.084,0.743,7.477,1.282c-0.066,1.752-0.128,3.08-0.128,4.415
	c-0.237,9.899-3.475,19.846-7.373,28.944c-3.77,8.78-9.127,15.653-16.817,19.697c-5.869,3.085-13.142,6.566-19.497,6.566
	c-0.578,0-3.668-0.045-4.241-0.045c-1.622,0-12.11-1.631-20.796-5.885c-2.409-1.354-4.966-3.001-7.572-5.036
	c-0.062-0.063-0.115-0.121-0.191-0.181c0.007,0.021,0.022,0.036,0.022,0.056c-1.064-0.848-2.15-1.755-3.221-2.73
	c2.482-6.245,19.708-45.825,56.038-47.303c3.877-0.335,7.566-0.392,11.073-0.217c0.031,1.515,0.048,3.073,0.048,4.664
	c-1.908,22.129-12.647,40.851-34.554,51.858c0,0,1.754,0.368,3.21,0.143c2.589-1.352,22.019-9.322,32.47-37.854
	C178.605,401.682,179.892,395.469,180.506,389.174L180.506,389.174z M157.838,322.734c8.69,15.426,16.31,30.138,17.377,63.308
	c-3.431-0.046-7.033,0.105-10.853,0.493c-40.601,4.073-55.313,40.898-57.052,45.555c-0.447,0.963-0.767,1.765-0.994,2.425
	c-1.354-1.308-2.675-2.731-4.002-4.279c-15.16-17.746-30.482-41.601-34.941-87.053c-0.334-13.37,3.037-48.532,38.428-55.947
	C124.107,284.539,148.508,306.228,157.838,322.734L157.838,322.734z M552.314,405.152c7.896-21.25,10.239-66.348-11.137-94.844
	c-19.34-28.009-43.322-33.525-55.908-33.765c-10.486-0.199-29.137-0.771-41.735,20.617c-8.221,1.641-14.127,5.91-21.336,12.019
	c-27.689,23.442-21.1,68.993-19.762,80.656c0.888,7.083,2.284,13.658,4.136,19.751c-0.861,0.578-1.703,1.154-2.521,1.706
	c-3.093,2.072-6.742,4.609-10.559,7.295c-6.587-12.143-33.872-61.267-33.872-61.267s28.705-35.09,42.659-52.244
	c2.109-1.788,5.591-2.562,9.338-2.583c10.177-0.087,9.532,0.221,10.271-1.166c0.974-1.781,1.193-7.085-2.245-7.085l-42.094,0.001
	c-2.478,0-4.065,2.917-2.764,6.23c1.667,4.308,17.365-0.575,12.74,5.065l-40.863,49.838c-0.717,0.875-1.529,1.23-2.22,1.23
	c-0.969,0-1.729-0.697-1.729-1.601v-45.5c0-2.792,2.655-5.588,4.783-6.484c4.437-1.901,11.297,0.86,12.993-3.435
	c1.084-2.722-0.198-5.346-4.605-5.346l-43.037,0.001c-6.524,0-6.816,7.411-2.137,8.015c1.503,0.193,5.835,0.629,5.835,4.012v126.802
	c0,3.084-2.587,4.602-5.177,4.602c-2.587,0-5.19-1.518-5.19-4.517l-0.029-151.802l-15.913-23.321l-23.516,0.01
	c-8.842,0-9.092,0.365-12.362,2.775c-4.783,3.525-4.091,12.41-4.054,19.107c0,0.831,0.441,1.225,0.935,1.226
	c0.247,0,0.526-0.106,0.759-0.321l2.909-2.723l12.924,0.02c6.979,0,12.955,5.611,12.955,11.425l-0.119,143.921
	c-0.013,2.984-2.613,4.486-5.19,4.486c-2.571,0-5.119-1.47-5.119-4.424l0.024-124.875c0-2.337,0.358-5.727,2.117-5.9
	c1.719-0.18,3.554-0.01,5.496-1.83c2.042-1.909,1.253-6.311-2.445-6.311h-31.564c-5.769,0-5.518,7.854,0.281,7.854h0.023h6.742
	c2.959,0,8.103,2.273,8.103,7.239v76.708c0,1.002-0.407,1.502-0.874,1.502c-0.296,0-0.622-0.213-0.858-0.65
	c-17.194-31.25-33.944-62.357-49.498-93.064l-36.372,0.029c-2.124,0-2.505,0.924-2.505,4.578c-0.018,2.972,3.842,3.126,9.986,3.168
	c4.76,0.035,9.318,4.982,9.318,9.884v62.465c0,4.598-0.114,9.329-0.239,12.875c-2.35-0.411-4.784-0.726-7.355-0.926
	c1.522-23.401-5.953-47.432-13.495-59.159c-9.885-15.393-32.69-45.159-61.442-42.123c-28.765,3.031-48.411,34.823-44.603,67.28
	c3.74,31.76,21,91.32,74.046,102.289c1.074,0.27,2.189,0.467,3.323,0.618c0.094,0.017,0.191,0.029,0.298,0.049
	c0-0.009,0-0.017-0.013-0.016c1.361,0.164,2.745,0.235,4.147,0.236c6.915,0,14.27-1.852,20.474-4.655
	c12.403-5.637,21.143-15.048,26.792-25.76c3.663-6.945,6.902-17.799,8.006-27.404c0.137-1.239,0.232-2.458,0.329-3.901
	c17.224,6.846,27.113,18.653,29.954,22.907c3.101,4.648,10.355,15.521,12.926,33.34c-9.42-2.791-19.382-3.955-27.627-3.682
	c-23.803,0.779-51.101,4.046-69.183,33.695c-14.359,25.947,0.53,49.488,10.953,60.313c-19.859-7.375-33.265-18.637-44.773-36.476
	c-12.396-19.269-4.989-54.187-4.617-56.675c0.371-2.501-2.137-2.501-2.137-2.501s0.095,0-4.899-1.203
	c-27.605-8.24-42.976-39.079-51.59-65.297c-9.819-32.321-3.704-60.657,4.733-76.399c8.421-15.748,28.761-33.734,57.618-35.011
	c27.07-1.522,43.501,14.91,45.403,17c1.737,1.904,2.911,1.284,3.102,1.162c0.031-0.016,0.042-0.023,0.042-0.022
	c0,0-0.011,0.006-0.042,0.022c-0.209,0.151-1.556,1.076,0.543-0.15c-8.365-8.356-17.586-18.612-49.515-19.796
	c-67.591,3.409-77.78,73.432-68.991,110.099c15.338,61.284,48.006,68.124,63.022,72.202c-6.262,34.14,0.644,53.575,12.064,67.45
	c12.981,16.024,28.255,24.948,44.266,29.531c9.676,7.971,25.688,19.209,73.782,18.755c48.293-0.44,79.963-31.453,79.963-31.453
	l81.563-65.146l1.009-0.842c1.046,1.147,2.048,2.187,3.024,3.123c4.033,5.832,21.616,21.605,35.382,26.188
	c7.441,2.485,15.445,3.797,23.458,3.797c10.075,0,20.164-2.074,29.088-6.534c18.654-9.322,32.144-26.646,39.931-45.467
	c0.976-0.923,1.92-1.863,2.823-2.819c0.651,3.96,0.993,8.197,0.993,12.744c0,36.173-29.672,63.983-65.455,64.401
	c-35.772,0.404-66.098-36.391-66.098-36.391s-88.271,69.355-99.965,78.208c-11.699,8.843-20.807,14.818-59.309,16.323
	c-38.484,1.489-55.754-11.981-55.754-11.981l-0.729,2.196c0,0,19.46,12.349,55.91,12.349c56.591,0.954,83.14-23.038,83.14-23.038
	s76.531-60.862,80.588-64.061c13.105,8.854,29.737,28.479,62.059,28.479c56.586,0,68.63-51.935,68.629-66.753
	c0-5.442-0.513-10.508-1.452-15.226C541.608,430.641,547.181,419.003,552.314,405.152z"/>

</svg>
