<?xml version="1.0" standalone="no"?>
<!DOCTYPE svg PUBLIC "-//W3C//DTD SVG 20010904//EN"
 "http://www.w3.org/TR/2001/REC-SVG-20010904/DTD/svg10.dtd">
<svg version="1.0" xmlns="http://www.w3.org/2000/svg"
 width="512.000000pt" height="512.000000pt" viewBox="0 0 512.000000 512.000000"
 preserveAspectRatio="xMidYMid meet">
<metadata>
Created by potrace 1.16, written by Peter Selinger 2001-2019
</metadata>
<g transform="translate(0.000000,512.000000) scale(0.100000,-0.100000)"
fill="rgb(255,255,255, 0.1)" stroke="none">
<path d="M936 5104 c-74 -27 -153 -100 -188 -174 -15 -32 -123 -148 -379 -406
-294 -295 -359 -365 -359 -387 0 -15 3 -27 7 -27 4 0 164 156 355 347 l348
348 0 -65 0 -64 -355 -356 c-291 -292 -355 -361 -355 -383 0 -15 3 -27 7 -27
4 0 164 156 355 347 l348 348 0 -65 0 -64 -355 -356 c-291 -292 -355 -361
-355 -383 0 -15 3 -27 7 -27 4 0 164 156 355 347 l348 348 0 -65 0 -64 -355
-356 c-291 -292 -355 -361 -355 -383 0 -15 3 -27 7 -27 4 0 164 156 355 347
l348 348 0 -65 0 -64 -355 -356 c-291 -292 -355 -361 -355 -383 0 -15 3 -27 7
-27 4 0 164 156 355 347 l348 348 0 -65 0 -64 -355 -356 c-291 -292 -355 -361
-355 -383 0 -15 3 -27 7 -27 4 0 164 156 355 347 l348 348 0 -65 0 -64 -355
-356 c-291 -292 -355 -361 -355 -383 0 -15 3 -27 7 -27 4 0 164 156 355 347
l348 348 0 -65 0 -64 -355 -356 c-291 -292 -355 -361 -355 -383 0 -15 3 -27 7
-27 4 0 164 156 355 347 l348 348 0 -65 0 -64 -355 -356 c-291 -292 -355 -361
-355 -383 0 -15 3 -27 7 -27 4 0 164 156 355 347 l348 348 0 -65 0 -64 -355
-356 c-291 -292 -355 -361 -355 -383 0 -15 3 -27 7 -27 4 0 164 156 355 347
l348 348 0 -65 0 -64 -355 -356 c-291 -292 -355 -361 -355 -383 0 -15 3 -27 7
-27 4 0 164 156 355 347 l348 348 0 -65 0 -64 -355 -356 c-291 -292 -355 -361
-355 -383 0 -15 3 -27 7 -27 4 0 164 156 355 347 l348 348 0 -65 0 -64 -355
-356 c-291 -292 -355 -361 -355 -383 0 -15 3 -27 7 -27 4 0 164 156 355 347
l348 348 0 -65 0 -64 -355 -356 c-291 -292 -355 -361 -355 -383 0 -15 3 -27 7
-27 4 0 164 156 355 347 l348 348 0 -65 0 -64 -355 -356 c-291 -292 -355 -361
-355 -383 0 -15 3 -27 7 -27 4 0 164 156 355 347 l348 348 0 -65 0 -64 -355
-356 c-291 -292 -355 -361 -355 -383 0 -15 3 -27 7 -27 4 0 164 156 355 347
l348 348 0 -65 0 -64 -355 -356 c-291 -292 -355 -361 -355 -383 0 -15 3 -27 7
-27 4 0 164 156 355 347 l348 348 0 -65 0 -64 -355 -356 c-291 -292 -355 -361
-355 -383 0 -15 3 -27 7 -27 4 0 164 156 355 347 l348 348 0 -65 0 -64 -355
-356 c-291 -292 -355 -361 -355 -383 0 -15 3 -27 7 -27 4 0 164 156 355 347
l348 348 0 -65 0 -64 -355 -356 c-291 -292 -355 -361 -355 -383 0 -15 3 -27 7
-27 4 0 164 156 355 347 l348 348 0 -65 0 -64 -355 -356 c-291 -292 -355 -361
-355 -383 0 -15 3 -27 7 -27 4 0 164 156 355 347 l348 348 0 -65 0 -65 -321
-320 c-176 -176 -325 -328 -330 -338 -8 -14 -5 -17 17 -17 23 0 82 55 331 302
l303 302 0 -64 0 -65 -221 -220 c-121 -121 -225 -228 -230 -238 -8 -14 -5 -17
17 -17 22 0 67 40 230 202 l204 202 0 -65 0 -64 -121 -120 c-140 -140 -151
-155 -114 -155 20 0 54 27 138 109 l112 108 22 -42 21 -43 -50 -48 c-66 -66
-76 -84 -44 -84 14 0 44 18 75 46 53 47 56 48 104 10 15 -12 16 -18 7 -35 -9
-19 -8 -21 14 -21 14 0 27 4 31 10 4 6 15 6 31 0 16 -6 619 -10 1608 -10 1745
0 1624 -4 1711 62 59 45 104 109 124 173 17 53 35 74 374 414 292 292 357 362
357 384 0 15 -3 27 -7 27 -4 0 -166 -159 -360 -352 l-353 -353 0 65 0 64 360
361 c295 296 360 366 360 388 0 15 -3 27 -7 27 -4 0 -166 -159 -360 -352
l-353 -353 0 65 0 64 360 361 c295 296 360 366 360 388 0 15 -3 27 -7 27 -4 0
-166 -159 -360 -352 l-353 -353 0 65 0 64 360 361 c295 296 360 366 360 388 0
15 -3 27 -7 27 -4 0 -166 -159 -360 -352 l-353 -353 0 65 0 64 360 361 c295
296 360 366 360 388 0 15 -3 27 -7 27 -4 0 -166 -159 -360 -352 l-353 -353 0
65 0 64 360 361 c295 296 360 366 360 388 0 15 -3 27 -7 27 -4 0 -166 -159
-360 -352 l-353 -353 0 65 0 64 360 361 c295 296 360 366 360 388 0 15 -3 27
-7 27 -4 0 -166 -159 -360 -352 l-353 -353 0 65 0 64 360 361 c295 296 360
366 360 388 0 15 -3 27 -7 27 -4 0 -166 -159 -360 -352 l-353 -353 0 65 0 64
360 361 c295 296 360 366 360 388 0 15 -3 27 -7 27 -4 0 -166 -159 -360 -352
l-353 -353 0 65 0 64 360 361 c295 296 360 366 360 388 0 15 -3 27 -7 27 -4 0
-166 -159 -360 -352 l-353 -353 0 65 0 64 360 361 c295 296 360 366 360 388 0
15 -3 27 -7 27 -4 0 -166 -159 -360 -352 l-353 -353 0 65 0 64 360 361 c295
296 360 366 360 388 0 15 -3 27 -7 27 -4 0 -166 -159 -360 -352 l-353 -353 0
65 0 64 360 361 c295 296 360 366 360 388 0 15 -3 27 -7 27 -4 0 -166 -159
-360 -352 l-353 -353 0 65 0 64 360 361 c295 296 360 366 360 388 0 15 -3 27
-7 27 -4 0 -166 -159 -360 -352 l-353 -353 0 65 0 64 360 361 c295 296 360
366 360 388 0 15 -3 27 -7 27 -4 0 -166 -159 -360 -352 l-353 -353 0 65 0 64
360 361 c295 296 360 366 360 388 0 15 -3 27 -7 27 -4 0 -166 -159 -360 -352
l-353 -353 0 65 0 64 360 361 c295 296 360 366 360 388 0 15 -3 27 -7 27 -4 0
-166 -159 -360 -352 l-353 -353 0 65 0 64 360 361 c295 296 360 366 360 388 0
15 -3 27 -7 27 -4 0 -166 -159 -360 -352 l-353 -353 0 65 0 64 360 361 c295
296 360 366 360 388 0 15 -3 27 -7 27 -4 0 -166 -159 -360 -352 l-353 -353 0
65 0 64 360 361 c295 296 360 366 360 388 0 15 -3 27 -7 27 -4 0 -166 -159
-360 -352 l-353 -353 0 65 0 64 360 361 c295 296 360 366 360 388 0 15 -3 27
-7 27 -4 0 -166 -159 -360 -352 l-353 -353 0 65 0 65 296 295 c162 162 300
303 305 313 8 14 5 17 -17 17 -23 0 -79 -51 -306 -277 l-278 -277 0 64 0 65
196 195 c107 107 200 203 205 213 8 14 5 17 -17 17 -21 0 -63 -36 -204 -176
l-178 -176 -4 61 -3 61 98 98 c117 116 129 132 92 132 -19 0 -51 -24 -118 -89
l-92 -89 -27 38 -26 38 35 33 c19 19 39 42 44 52 17 31 -34 20 -77 -17 l-39
-33 -35 26 c-19 14 -38 30 -42 36 -5 7 -552 11 -1620 12 -1383 1 -1619 0
-1652 -13z m109 -304 l-100 -101 -3 62 c-3 60 -2 63 35 101 35 36 40 38 102
38 l66 0 -100 -100z m100 -100 l-200 -200 -3 62 -3 62 138 138 138 138 65 0
65 0 -200 -200z m100 -100 l-300 -300 -3 62 -3 62 238 238 238 238 65 0 65 0
-300 -300z m100 -100 l-400 -400 -3 62 -3 62 338 338 338 338 65 0 65 0 -400
-400z m100 -100 l-500 -500 -3 62 -3 62 438 438 438 438 65 0 65 0 -500 -500z
m100 -100 l-600 -600 -3 62 -3 62 538 538 538 538 65 0 65 0 -600 -600z m505
305 l-295 -295 -65 0 -65 0 295 295 295 295 65 0 65 0 -295 -295z m200 0
l-295 -295 -65 0 -65 0 295 295 295 295 65 0 65 0 -295 -295z m200 0 l-295
-295 -65 0 -65 0 295 295 295 295 65 0 65 0 -295 -295z m200 0 l-295 -295 -65
0 -65 0 295 295 295 295 65 0 65 0 -295 -295z m200 0 l-295 -295 -65 0 -65 0
295 295 295 295 65 0 65 0 -295 -295z m200 0 l-295 -295 -65 0 -65 0 295 295
295 295 65 0 65 0 -295 -295z m200 0 l-295 -295 -65 0 -65 0 295 295 295 295
65 0 65 0 -295 -295z m200 0 l-295 -295 -65 0 -65 0 295 295 295 295 65 0 65
0 -295 -295z m200 0 l-295 -295 -65 0 -65 0 295 295 295 295 65 0 65 0 -295
-295z m474 288 c4 -4 -124 -138 -284 -298 l-290 -290 -61 3 -62 4 294 294 294
294 51 0 c28 0 54 -3 58 -7z m56 -106 l0 -52 -293 -293 c-289 -289 -293 -292
-289 -253 2 22 -1 48 -7 58 -9 16 29 57 281 310 161 160 295 290 300 287 4 -3
8 -29 8 -57z m-602 -854 l-603 -603 -65 0 -65 0 665 665 665 665 3 -62 3 -62
-603 -603z m100 -100 l-503 -503 -65 0 -65 0 565 565 565 565 3 -62 3 -62
-503 -503z m100 -100 l-403 -403 -65 0 -65 0 465 465 465 465 3 -62 3 -62
-403 -403z m-2222 475 c0 -18 3 -44 7 -58 7 -23 -21 -54 -308 -340 l-315 -315
0 65 0 65 307 307 c170 170 308 308 308 308 0 0 0 -15 1 -32z m167 -121 c4 -1
-171 -180 -388 -397 l-395 -395 0 65 0 65 336 336 336 336 51 -4 c29 -3 55 -5
60 -6z m1437 -372 l-385 -385 -65 0 -65 0 380 380 379 379 61 4 c33 2 64 4 70
5 5 1 -163 -171 -375 -383z m-1720 -120 l-495 -495 -3 62 -3 62 433 433 433
433 65 0 65 0 -495 -495z m100 -100 l-595 -595 -3 62 -3 62 533 533 533 533
65 0 65 0 -595 -595z m100 -100 l-695 -695 -3 62 -3 62 633 633 633 633 65 0
65 0 -695 -695z m515 315 l-380 -380 -65 0 -65 0 380 380 380 380 65 0 65 0
-380 -380z m200 0 l-380 -380 -65 0 -65 0 380 380 380 380 65 0 65 0 -380
-380z m200 0 l-380 -380 -65 0 -65 0 380 380 380 380 65 0 65 0 -380 -380z
m200 0 l-380 -380 -65 0 -65 0 380 380 380 380 65 0 65 0 -380 -380z m200 0
l-380 -380 -65 0 -65 0 380 380 380 380 65 0 65 0 -380 -380z m918 -81 l-308
-307 -59 5 -58 6 363 363 364 364 3 -62 3 -62 -308 -307z m-385 -586 l-693
-693 -65 0 -65 0 379 379 379 379 60 4 c53 4 64 9 89 37 26 29 29 40 26 82
l-3 49 290 290 290 290 3 -62 3 -62 -693 -693z m100 -100 l-593 -593 -65 0
-65 0 655 655 655 655 3 -62 3 -62 -593 -593z m100 -100 l-493 -493 -65 0 -65
0 555 555 555 555 3 -62 3 -62 -493 -493z m100 -100 l-393 -393 -65 0 -65 0
455 455 455 455 3 -62 3 -62 -393 -393z m-2526 74 l-317 -317 -3 62 -3 62 303
303 302 302 18 -47 18 -47 -318 -318z m88 -112 l-405 -405 -3 62 -3 62 343
343 343 343 65 0 65 0 -405 -405z m100 -100 l-505 -505 -3 62 -3 62 443 443
443 443 65 0 65 0 -505 -505z m100 -100 l-605 -605 -3 62 -3 62 543 543 543
543 65 0 65 0 -605 -605z m100 -100 l-705 -705 -3 62 -3 62 643 643 643 643
65 0 65 0 -705 -705z m525 325 l-380 -380 -65 0 -65 0 380 380 380 380 65 0
65 0 -380 -380z m200 0 l-380 -380 -65 0 -65 0 380 380 380 380 65 0 65 0
-380 -380z m200 0 l-380 -380 -65 0 -65 0 380 380 380 380 65 0 65 0 -380
-380z m200 0 l-380 -380 -65 0 -65 0 380 380 380 380 65 0 65 0 -380 -380z
m200 0 l-380 -380 -65 0 -65 0 380 380 380 380 65 0 65 0 -380 -380z m903 -97
c-215 -216 -307 -301 -318 -296 -8 3 -32 8 -54 11 l-39 4 354 354 354 354 3
-62 3 -62 -303 -303z m-220 -420 c-390 -390 -529 -523 -546 -523 -52 0 -101
-46 -102 -95 0 -25 -25 -55 -157 -187 -109 -109 -165 -158 -180 -158 -55 0
-103 -48 -103 -102 0 -17 -119 -142 -452 -475 l-453 -453 -65 0 -65 0 954 954
954 954 50 5 c67 6 107 47 107 110 0 42 2 43 288 330 l287 287 3 -62 3 -62
-523 -523z m50 -150 c-446 -447 -474 -472 -483 -450 -5 13 -16 32 -24 41 -13
16 31 63 480 512 l494 494 3 -62 3 -62 -473 -473z m0 -200 l-473 -473 -3 62
-3 62 473 473 473 473 3 -62 3 -62 -473 -473z m30 -170 c-402 -403 -446 -443
-475 -443 -30 0 -33 2 -33 32 0 30 43 76 473 506 l472 472 3 -62 3 -62 -443
-443z m-2169 495 l21 -43 -323 -323 -322 -322 -3 62 -3 62 303 303 c167 167
304 303 304 303 1 0 11 -19 23 -42z m-209 -473 l-415 -415 -3 62 -3 62 353
353 353 353 65 0 65 0 -415 -415z m100 -100 l-515 -515 -3 62 -3 62 453 453
453 453 65 0 65 0 -515 -515z m100 -100 l-615 -615 -3 62 -3 62 553 553 553
553 65 0 65 0 -615 -615z m100 -100 l-715 -715 -3 62 -3 62 653 653 653 653
65 0 65 0 -715 -715z m100 -100 l-815 -815 -3 62 -3 62 753 753 753 753 65 0
65 0 -815 -815z m100 -100 l-915 -915 -3 62 -3 62 853 853 853 853 65 0 65 0
-915 -915z m160 -40 c-1018 -1019 -969 -973 -1035 -943 -26 12 -12 26 917 955
l943 943 65 0 65 0 -955 -955z m200 0 l-955 -955 -65 0 -65 0 955 955 955 955
65 0 65 0 -955 -955z m200 0 l-955 -955 -65 0 -65 0 955 955 955 955 65 0 65
0 -955 -955z m1418 418 l-343 -343 -65 0 -65 0 405 405 405 405 3 -62 3 -62
-343 -343z m79 -121 l-265 -265 -27 22 c-15 11 -35 21 -44 21 -9 0 121 137
289 305 l305 305 3 -62 3 -62 -264 -264z m-394 -594 l-658 -658 -65 0 -65 0
185 185 c154 154 190 185 213 185 39 0 97 58 97 96 0 24 28 57 157 186 125
126 163 158 185 158 39 0 86 44 94 88 5 32 42 73 258 290 l251 252 3 -62 3
-62 -658 -658z m-570 430 l-57 -58 -66 0 -65 0 120 120 120 120 3 -61 3 -62
-58 -59z m670 -530 l-558 -558 -65 0 -65 0 620 620 620 620 3 -62 3 -62 -558
-558z m100 -100 l-458 -458 -65 0 -65 0 520 520 520 520 3 -62 3 -62 -458
-458z m-1069 352 c15 0 -93 -114 -384 -405 l-405 -405 -65 0 -65 0 424 424
425 425 24 -20 c14 -10 34 -19 46 -19z m1169 -452 l-358 -358 -65 0 -65 0 420
420 420 420 3 -62 3 -62 -358 -358z m-1353 47 l-405 -405 -65 0 -65 0 405 405
405 405 65 0 65 0 -405 -405z m540 373 c0 -30 -36 -68 -372 -405 l-373 -373
-65 0 -65 0 405 405 c367 367 408 405 437 405 30 0 33 -2 33 -32z m345 -88
l-120 -120 -3 61 -3 62 58 59 57 58 66 0 65 0 -120 -120z m-617 -417 l-273
-273 -65 0 -65 0 335 335 335 335 3 -62 3 -62 -273 -273z m1185 -15 l-258
-258 -65 0 -65 0 320 320 320 320 3 -62 3 -62 -258 -258z m-887 141 c13 -11
-9 -37 -178 -206 l-193 -193 -65 0 -65 0 235 235 c231 231 235 235 242 206 5
-16 15 -34 24 -42z m987 -241 l-158 -158 -65 0 -65 0 220 220 220 220 3 -62 3
-62 -158 -158z m100 -100 l-57 -58 -66 0 -65 0 120 120 120 120 3 -61 3 -62
-58 -59z"/>


</g>
</svg>
